<svg width="17" height="16" viewBox="0 0 17 16" fill="none" xmlns="http://www.w3.org/2000/svg">
<path d="M12.0646 1.35442C12.9474 1.35694 13.7933 1.69384 14.4175 2.29154C15.0418 2.88924 15.3936 3.69916 15.3963 4.54443V10.9238C15.3936 11.7691 15.0418 12.579 14.4175 13.1767C13.7933 13.7744 12.9474 14.1113 12.0646 14.1138H5.40194C4.51913 14.1113 3.67323 13.7744 3.04899 13.1767C2.42475 12.579 2.07289 11.7691 2.07025 10.9238V4.54443C2.07289 3.69916 2.42475 2.88924 3.04899 2.29154C3.67323 1.69384 4.51913 1.35694 5.40194 1.35442H12.0646ZM12.0646 0.0786133H5.40194C2.8366 0.0786133 0.737793 2.08818 0.737793 4.54443V10.9238C0.737793 13.38 2.8366 15.3896 5.40194 15.3896H12.0646C14.6299 15.3896 16.7287 13.38 16.7287 10.9238V4.54443C16.7287 2.08818 14.6299 0.0786133 12.0646 0.0786133Z" fill="#2B4248"/>
<path d="M13.0634 4.54425C12.8657 4.54425 12.6725 4.48812 12.5081 4.38297C12.3437 4.27782 12.2156 4.12837 12.14 3.95351C12.0644 3.77865 12.0446 3.58625 12.0831 3.40062C12.1217 3.21499 12.2169 3.04448 12.3567 2.91065C12.4964 2.77682 12.6745 2.68568 12.8684 2.64876C13.0622 2.61184 13.2632 2.63079 13.4458 2.70321C13.6284 2.77564 13.7845 2.8983 13.8944 3.05566C14.0042 3.21303 14.0628 3.39804 14.0628 3.58731C14.0631 3.71305 14.0374 3.83761 13.9873 3.95383C13.9372 4.07005 13.8636 4.17565 13.7707 4.26457C13.6778 4.35348 13.5675 4.42396 13.4462 4.47195C13.3248 4.51995 13.1947 4.54452 13.0634 4.54425ZM8.7326 5.18198C9.25974 5.18198 9.77504 5.33164 10.2133 5.61206C10.6516 5.89247 10.9933 6.29103 11.195 6.75733C11.3967 7.22364 11.4495 7.73675 11.3467 8.23178C11.2438 8.72681 10.99 9.18152 10.6172 9.53842C10.2445 9.89531 9.76958 10.1384 9.25257 10.2368C8.73555 10.3353 8.19966 10.2848 7.71264 10.0916C7.22563 9.89846 6.80937 9.57137 6.5165 9.15171C6.22364 8.73204 6.06732 8.23865 6.06732 7.73392C6.06808 7.05732 6.34913 6.40865 6.8488 5.93022C7.34847 5.4518 8.02596 5.1827 8.7326 5.18198ZM8.7326 3.90617C7.94192 3.90617 7.169 4.13067 6.51158 4.55127C5.85415 4.97186 5.34175 5.56968 5.03917 6.26911C4.7366 6.96853 4.65743 7.73817 4.81168 8.48068C4.96593 9.22319 5.34668 9.90523 5.90577 10.4405C6.46487 10.9759 7.1772 11.3404 7.95268 11.4881C8.72816 11.6358 9.53197 11.56 10.2625 11.2703C10.993 10.9806 11.6173 10.49 12.0566 9.8605C12.4959 9.23103 12.7303 8.49098 12.7303 7.73392C12.7303 6.71874 12.3091 5.74514 11.5594 5.0273C10.8097 4.30945 9.79286 3.90617 8.7326 3.90617Z" fill="#2B4248"/>
</svg>
