<svg width="231" height="228" viewBox="0 0 231 228" fill="none" xmlns="http://www.w3.org/2000/svg">
<ellipse cx="115.5" cy="114" rx="114.653" ry="114" fill="#2B4248"/>
<path d="M66.0952 166.036H62.0212L61.3212 168.024H59.6552L63.1412 158.28H64.9892L68.4752 168.024H66.7952L66.0952 166.036ZM65.6472 164.734L64.0652 160.212L62.4692 164.734H65.6472ZM83.4449 168.024L81.2049 164.132H79.9869V168.024H78.3909V158.294H81.7509C82.4976 158.294 83.1276 158.425 83.6409 158.686C84.1636 158.948 84.5509 159.298 84.8029 159.736C85.0643 160.175 85.1949 160.665 85.1949 161.206C85.1949 161.841 85.0083 162.42 84.6349 162.942C84.2709 163.456 83.7063 163.806 82.9409 163.992L85.3489 168.024H83.4449ZM79.9869 162.858H81.7509C82.3483 162.858 82.7963 162.709 83.0949 162.41C83.4029 162.112 83.5569 161.71 83.5569 161.206C83.5569 160.702 83.4076 160.31 83.1089 160.03C82.8103 159.741 82.3576 159.596 81.7509 159.596H79.9869V162.858ZM95.1046 163.138C95.1046 162.186 95.324 161.332 95.7626 160.576C96.2106 159.82 96.8126 159.232 97.5686 158.812C98.334 158.383 99.1693 158.168 100.075 158.168C101.111 158.168 102.03 158.425 102.833 158.938C103.645 159.442 104.233 160.161 104.597 161.094H102.679C102.427 160.581 102.077 160.198 101.629 159.946C101.181 159.694 100.663 159.568 100.075 159.568C99.4306 159.568 98.8566 159.713 98.3526 160.002C97.8486 160.292 97.452 160.707 97.1626 161.248C96.8826 161.79 96.7426 162.42 96.7426 163.138C96.7426 163.857 96.8826 164.487 97.1626 165.028C97.452 165.57 97.8486 165.99 98.3526 166.288C98.8566 166.578 99.4306 166.722 100.075 166.722C100.663 166.722 101.181 166.596 101.629 166.344C102.077 166.092 102.427 165.71 102.679 165.196H104.597C104.233 166.13 103.645 166.848 102.833 167.352C102.03 167.856 101.111 168.108 100.075 168.108C99.16 168.108 98.3246 167.898 97.5686 167.478C96.8126 167.049 96.2106 166.456 95.7626 165.7C95.324 164.944 95.1046 164.09 95.1046 163.138ZM122.635 158.294V168.024H121.039V163.768H116.461V168.024H114.865V158.294H116.461V162.466H121.039V158.294H122.635ZM134.732 158.294V168.024H133.136V158.294H134.732ZM151.513 158.294V159.596H148.923V168.024H147.327V159.596H144.723V158.294H151.513ZM163.126 159.582V162.438H166.486V163.74H163.126V166.722H166.906V168.024H161.53V158.28H166.906V159.582H163.126ZM59.6972 185.138C59.6972 184.186 59.9165 183.332 60.3552 182.576C60.8032 181.82 61.4052 181.232 62.1612 180.812C62.9265 180.383 63.7619 180.168 64.6672 180.168C65.7032 180.168 66.6225 180.425 67.4252 180.938C68.2372 181.442 68.8252 182.161 69.1892 183.094H67.2712C67.0192 182.581 66.6692 182.198 66.2212 181.946C65.7732 181.694 65.2552 181.568 64.6672 181.568C64.0232 181.568 63.4492 181.713 62.9452 182.002C62.4412 182.292 62.0445 182.707 61.7552 183.248C61.4752 183.79 61.3352 184.42 61.3352 185.138C61.3352 185.857 61.4752 186.487 61.7552 187.028C62.0445 187.57 62.4412 187.99 62.9452 188.288C63.4492 188.578 64.0232 188.722 64.6672 188.722C65.2552 188.722 65.7732 188.596 66.2212 188.344C66.6692 188.092 67.0192 187.71 67.2712 187.196H69.1892C68.8252 188.13 68.2372 188.848 67.4252 189.352C66.6225 189.856 65.7032 190.108 64.6672 190.108C63.7525 190.108 62.9172 189.898 62.1612 189.478C61.4052 189.049 60.8032 188.456 60.3552 187.7C59.9165 186.944 59.6972 186.09 59.6972 185.138ZM88.4033 180.294V181.596H85.8133V190.024H84.2173V181.596H81.6133V180.294H88.4033ZM102.662 180.294V186.496C102.662 187.234 102.853 187.789 103.236 188.162C103.628 188.536 104.169 188.722 104.86 188.722C105.56 188.722 106.101 188.536 106.484 188.162C106.876 187.789 107.072 187.234 107.072 186.496V180.294H108.668V186.468C108.668 187.262 108.495 187.934 108.15 188.484C107.804 189.035 107.342 189.446 106.764 189.716C106.185 189.987 105.546 190.122 104.846 190.122C104.146 190.122 103.506 189.987 102.928 189.716C102.358 189.446 101.906 189.035 101.57 188.484C101.234 187.934 101.066 187.262 101.066 186.468V180.294H102.662ZM126.86 190.024L124.62 186.132H123.402V190.024H121.806V180.294H125.166C125.912 180.294 126.542 180.425 127.056 180.686C127.578 180.948 127.966 181.298 128.218 181.736C128.479 182.175 128.61 182.665 128.61 183.206C128.61 183.841 128.423 184.42 128.05 184.942C127.686 185.456 127.121 185.806 126.356 185.992L128.764 190.024H126.86ZM123.402 184.858H125.166C125.763 184.858 126.211 184.709 126.51 184.41C126.818 184.112 126.972 183.71 126.972 183.206C126.972 182.702 126.822 182.31 126.524 182.03C126.225 181.741 125.772 181.596 125.166 181.596H123.402V184.858ZM143.307 181.582V184.438H146.667V185.74H143.307V188.722H147.087V190.024H141.711V180.28H147.087V181.582H143.307ZM163.319 190.122C162.666 190.122 162.078 190.01 161.555 189.786C161.033 189.553 160.622 189.226 160.323 188.806C160.025 188.386 159.875 187.896 159.875 187.336H161.583C161.621 187.756 161.784 188.102 162.073 188.372C162.372 188.643 162.787 188.778 163.319 188.778C163.87 188.778 164.299 188.648 164.607 188.386C164.915 188.116 165.069 187.77 165.069 187.35C165.069 187.024 164.971 186.758 164.775 186.552C164.589 186.347 164.351 186.188 164.061 186.076C163.781 185.964 163.389 185.843 162.885 185.712C162.251 185.544 161.733 185.376 161.331 185.208C160.939 185.031 160.603 184.76 160.323 184.396C160.043 184.032 159.903 183.547 159.903 182.94C159.903 182.38 160.043 181.89 160.323 181.47C160.603 181.05 160.995 180.728 161.499 180.504C162.003 180.28 162.587 180.168 163.249 180.168C164.192 180.168 164.962 180.406 165.559 180.882C166.166 181.349 166.502 181.993 166.567 182.814H164.803C164.775 182.46 164.607 182.156 164.299 181.904C163.991 181.652 163.585 181.526 163.081 181.526C162.624 181.526 162.251 181.643 161.961 181.876C161.672 182.11 161.527 182.446 161.527 182.884C161.527 183.183 161.616 183.43 161.793 183.626C161.98 183.813 162.213 183.962 162.493 184.074C162.773 184.186 163.156 184.308 163.641 184.438C164.285 184.616 164.808 184.793 165.209 184.97C165.62 185.148 165.965 185.423 166.245 185.796C166.535 186.16 166.679 186.65 166.679 187.266C166.679 187.761 166.544 188.228 166.273 188.666C166.012 189.105 165.625 189.46 165.111 189.73C164.607 189.992 164.01 190.122 163.319 190.122Z" fill="white"/>
<path d="M101.874 146.315V72.2506L128.217 49.6699V84.8957L138.21 78.5731V146.315" stroke="white"/>
<path d="M116.408 58.702V28.8955L99.1489 46.0568L86.4313 58.702V149.025" stroke="white"/>
</svg>
