<svg width="17" height="17" viewBox="0 0 17 17" fill="none" xmlns="http://www.w3.org/2000/svg">
<path d="M8.45086 0.254395C3.96441 0.254395 0.32666 3.86982 0.32666 8.32872C0.32666 11.6341 2.32869 14.4746 5.1903 15.7254C5.16854 15.1631 5.18667 14.4854 5.33174 13.8726C5.4877 13.2166 6.37628 9.47138 6.37628 9.47138C6.37628 9.47138 6.11515 8.95592 6.11515 8.19535C6.11515 6.99862 6.81151 6.10468 7.68196 6.10468C8.42184 6.10468 8.77727 6.65618 8.77727 7.31582C8.77727 8.05477 8.30215 9.15778 8.05915 10.1815C7.85605 11.0394 8.49075 11.7351 9.34307 11.7351C10.8809 11.7351 11.9181 9.77056 11.9181 7.44199C11.9181 5.67212 10.7177 4.34923 8.5379 4.34923C6.07525 4.34923 4.53746 6.17677 4.53746 8.21698C4.53746 8.91988 4.74782 9.41731 5.07424 9.7994C5.22294 9.97602 5.2447 10.0481 5.1903 10.25C5.1504 10.3978 5.06336 10.7546 5.02346 10.8988C4.96906 11.1043 4.80222 11.1764 4.61725 11.1007C3.48204 10.6393 2.95252 9.4065 2.95252 8.01512C2.95252 5.72259 4.90015 2.97227 8.75914 2.97227C11.8601 2.97227 13.902 5.20352 13.902 7.59698C13.902 10.7654 12.1285 13.1301 9.51716 13.1301C8.63945 13.1301 7.81615 12.6579 7.53326 12.1244C7.53326 12.1244 7.06176 13.9844 6.96021 14.3448C6.78975 14.9684 6.45245 15.5884 6.14416 16.075C6.89198 16.2943 7.66755 16.406 8.44723 16.4066C12.9337 16.4066 16.5714 12.7912 16.5714 8.33232C16.5714 3.87342 12.9373 0.254395 8.45086 0.254395Z" fill="#2B4248"/>
</svg>
