<svg width="18" height="15" viewBox="0 0 18 15" fill="none" xmlns="http://www.w3.org/2000/svg">
<path d="M17.2635 2.51865C16.6208 2.79631 15.9408 2.97924 15.245 3.06165C15.9763 2.6359 16.5262 1.95951 16.7916 1.15935C16.1003 1.56131 15.3452 1.84335 14.5586 1.99338C14.2274 1.64824 13.8291 1.37368 13.3878 1.18637C12.9466 0.999067 12.4716 0.902933 11.9919 0.903815C10.0494 0.903815 8.47743 2.44411 8.47743 4.34287C8.47605 4.60698 8.50649 4.87031 8.56809 5.12722C7.1752 5.06229 5.81127 4.70899 4.56357 4.08991C3.31587 3.47084 2.21186 2.59962 1.3222 1.532C1.01008 2.05518 0.845013 2.65211 0.844252 3.2604C0.844252 4.45289 1.46997 5.50697 2.41479 6.12451C1.85501 6.1113 1.3067 5.96398 0.816411 5.69507V5.73766C0.816411 7.40573 2.03001 8.79342 3.63624 9.10928C3.33419 9.18935 3.02293 9.22991 2.71034 9.22995C2.48853 9.23034 2.26722 9.20894 2.04964 9.16607C2.49617 10.5325 3.79579 11.5262 5.33528 11.5546C4.08434 12.5132 2.54851 13.0313 0.969181 13.0275C0.688847 13.0271 0.408772 13.0105 0.130371 12.9778C1.73702 13.9979 3.60463 14.5374 5.51089 14.5323C11.9844 14.5323 15.5209 9.29029 15.5209 4.74392C15.5209 4.59486 15.517 4.44579 15.5099 4.30028C16.1963 3.81479 16.7901 3.21146 17.2635 2.51865Z" fill="#2B4248"/>
</svg>
