<svg width="1130" height="298" viewBox="0 0 1130 298" fill="none" xmlns="http://www.w3.org/2000/svg">
<path d="M2.6084 4.91797C22.0941 3.18294 40.9792 1.98177 59.2637 1.31445C77.5482 0.513672 95.6325 0.113281 113.517 0.113281C131.401 0.113281 150.82 0.580404 171.773 1.51465C192.727 2.31543 215.616 3.58333 240.44 5.31836L242.843 9.52246L224.024 58.1699L217.418 56.168C218.352 51.4967 219.02 47.1592 219.42 43.1553C219.954 39.0179 220.221 35.1475 220.221 31.5439C220.221 26.6058 219.82 22.1348 219.02 18.1309C202.07 17.0632 186.788 16.2624 173.175 15.7285C159.695 15.1947 147.683 14.861 137.14 14.7275V257.965C137.14 263.437 137.607 268.108 138.541 271.979C139.609 275.849 141.344 279.119 143.746 281.788C146.148 284.457 149.352 286.66 153.355 288.395C157.359 289.996 162.431 291.331 168.57 292.398L166.969 297.203C158.961 296.135 152.021 295.335 146.148 294.801C140.276 294.267 135.338 294 131.334 294C127.597 294 123.393 294.267 118.722 294.801C114.184 295.335 109.112 296.135 103.507 297.203L102.306 295.201C104.975 291.331 106.31 284.257 106.31 273.98V14.7275C96.1663 14.861 84.2881 15.1947 70.6748 15.7285C57.0615 16.2624 41.513 17.0632 24.0293 18.1309C23.2285 22.5352 22.8281 27.2064 22.8281 32.1445C22.8281 39.2181 23.7624 47.2259 25.6309 56.168L19.0244 58.1699L0.206055 9.52246L2.6084 4.91797ZM353.639 4.11719C358.577 3.58333 362.648 6.4528 365.851 12.7256L438.121 146.056C480.296 80.2581 504.052 40.486 509.391 26.7393C511.126 21.8011 509.591 17.9307 504.786 15.1279C499.982 12.1917 491.974 10.1898 480.763 9.12207L479.962 5.31836C503.986 3.04948 521.87 3.7168 533.614 7.32031C535.75 8.38802 536.284 10.0563 535.216 12.3252C532.947 16.863 530.478 21.6009 527.809 26.5391C525.14 31.3438 498.247 74.7194 447.13 156.666V257.965C447.13 268.775 449.265 276.65 453.536 281.588C457.941 286.526 466.282 290.13 478.561 292.398L476.959 297.203C462.145 295.201 450.867 294.133 443.126 294C435.385 293.867 425.509 294.934 413.497 297.203L412.296 295.201C414.965 291.331 416.3 284.257 416.3 273.98V164.474L352.838 49.5615C347.5 40.6195 342.762 34.2132 338.624 30.3428C334.487 26.4723 330.149 24.2702 325.612 23.7363C321.074 23.069 315.668 23.2025 309.396 24.1367L306.393 20.5332C326.012 10.6569 341.761 5.1849 353.639 4.11719ZM686.652 30.7432V257.965C686.652 268.775 688.854 276.65 693.258 281.588C697.662 286.526 706.004 290.13 718.283 292.398L716.481 297.203C701.266 295.068 689.254 294 680.446 294C672.571 294 663.429 295.068 653.019 297.203L651.818 295.201C654.487 291.331 655.822 284.257 655.822 273.98V63.5752C655.822 44.6234 653.62 32.2113 649.215 26.3389C644.944 20.333 635.402 17.3301 620.587 17.3301L619.786 11.5244C656.889 6.05241 686.718 3.31641 709.274 3.31641C724.756 3.31641 738.436 4.45085 750.314 6.71973C762.326 8.98861 773.136 12.7923 782.745 18.1309C792.355 23.3359 799.695 30.6097 804.767 39.9521C809.972 49.2946 812.575 60.5723 812.575 73.7852C812.575 88.3327 807.837 101.612 798.361 113.624C789.018 125.502 777.34 134.578 763.327 140.851C749.446 146.99 735.232 150.06 720.685 150.06C714.946 150.06 710.675 149.793 707.872 149.259V142.252C718.016 142.252 727.358 140.917 735.9 138.248C744.575 135.579 752.249 131.575 758.922 126.236C765.729 120.898 771.001 113.891 774.738 105.216C778.608 96.4072 780.543 86.3307 780.543 74.9863C780.543 56.7018 775.939 42.221 766.73 31.5439C757.521 20.8669 743.107 15.5283 723.488 15.5283C709.074 15.5283 696.395 16.3958 685.451 18.1309C686.251 22.1348 686.652 26.3389 686.652 30.7432ZM988.034 281.788L1058.5 279.586C1068.25 279.319 1076.45 278.185 1083.13 276.183C1089.8 274.181 1095.54 271.378 1100.34 267.774C1105.15 264.037 1109.35 259.5 1112.96 254.161C1116.56 248.689 1120.16 242.416 1123.77 235.343L1129.57 237.745L1109.75 291.197L1106.55 294H961.007C958.472 288.528 957.204 281.988 957.204 274.381V61.5732C957.204 52.7646 956.803 45.5576 956.003 39.9521C955.202 34.2132 953.734 29.6755 951.598 26.3389C949.463 22.8688 946.46 20.4665 942.589 19.1318C938.852 17.7972 933.981 17.1299 927.975 17.1299C927.041 17.1299 926.04 17.1299 924.972 17.1299C924.038 17.1299 923.037 17.1966 921.969 17.3301L921.169 11.5244C959.206 5.51855 1001.11 2.51562 1046.89 2.51562C1070.25 2.51562 1094.74 3.31641 1120.36 4.91797L1121.76 8.32129L1102.75 58.1699L1096.34 56.168C1097.41 51.0964 1098.21 46.4251 1098.74 42.1543C1099.28 37.8835 1099.54 33.7461 1099.54 29.7422C1099.54 25.6048 1099.01 21.7344 1097.94 18.1309C1087.93 17.1966 1078.05 16.5293 1068.31 16.1289C1058.7 15.5951 1049.09 15.3281 1039.48 15.3281C1022 15.3281 1004.85 16.1289 988.034 17.7305V130.841L1097.54 124.835L1099.54 127.037L1090.13 143.453C1084.13 143.186 1078.05 142.986 1071.92 142.853C1065.78 142.719 1059.5 142.652 1053.1 142.652C1042.69 142.652 1032.08 142.853 1021.27 143.253C1010.46 143.653 999.378 144.187 988.034 144.854V281.788Z" fill="#2B4248"/>
</svg>
