<svg width="92" height="93" viewBox="0 0 92 93" fill="none" xmlns="http://www.w3.org/2000/svg">
<path d="M59.5 26C59.5 26 59.5 15.5 70 15.5C80.5 15.5 80.5 5 80.5 5M30.5 82L10.5 62M48.5 2V12M80.5 44L87.5 51M80.5 30L90.5 26M20.5 38L54.5 72M1.7285 86.2959L25.3353 21.3113C25.5374 20.7552 25.8768 20.2593 26.3219 19.8695C26.767 19.4797 27.3034 19.2087 27.8813 19.0818C28.4591 18.9548 29.0597 18.976 29.6272 19.1433C30.1947 19.3106 30.7107 19.6187 31.1273 20.0388L72.4612 61.3727C72.8813 61.7893 73.1894 62.3053 73.3567 62.8728C73.524 63.4403 73.5452 64.0409 73.4182 64.6187C73.2913 65.1966 73.0203 65.733 72.6305 66.1781C72.2407 66.6232 71.7447 66.9626 71.1887 67.1647L6.20414 90.7715C5.57894 91.0105 4.89793 91.0634 4.24334 90.9237C3.58874 90.7841 2.98857 90.458 2.51529 89.9847C2.04202 89.5114 1.71588 88.9112 1.57626 88.2567C1.43664 87.6021 1.48952 86.921 1.7285 86.2959Z" stroke="#F1AAAC" stroke-width="2.5" stroke-linecap="round" stroke-linejoin="round"/>
</svg>
