<svg width="81" height="103" viewBox="0 0 81 103" fill="none" xmlns="http://www.w3.org/2000/svg">
<path d="M21.5 101.5H59.5" stroke="#F1AAAC" stroke-width="2.5" stroke-linecap="round" stroke-linejoin="round"/>
<path d="M16.467 70.5645C11.8239 66.9885 8.06337 62.4126 5.47031 57.1836C2.87725 51.9545 1.51967 46.2095 1.50042 40.3837C1.40292 19.4262 18.417 1.99375 39.5749 1.51086C47.7635 1.31858 55.8053 3.68485 62.5598 8.27409C69.3144 12.8633 74.4388 19.4425 77.2063 27.0787C79.9739 34.7148 80.244 43.0201 77.9784 50.8169C75.7128 58.6136 71.0265 65.5059 64.5842 70.5162C63.1611 71.6059 62.0083 73.0034 61.2141 74.602C60.4198 76.2005 60.0051 77.9578 60.0016 79.7395V82.6369C60.0016 83.6614 59.5907 84.644 58.8593 85.3685C58.1279 86.093 57.1359 86.5 56.1015 86.5H24.9009C23.8665 86.5 22.8745 86.093 22.1431 85.3685C21.4117 84.644 21.0008 83.6614 21.0008 82.6369V79.7395C20.9886 77.9712 20.5747 76.2283 19.7899 74.64C19.005 73.0518 17.8693 71.6588 16.467 70.5645V70.5645Z" stroke="#F1AAAC" stroke-width="2.5" stroke-linecap="round" stroke-linejoin="round"/>
<path d="M44.5 17.5C49.2392 18.3054 53.6122 20.5658 57.0155 23.969C60.4188 27.3723 62.6845 31.7507 63.5 36.5" stroke="#F1AAAC" stroke-width="2.5" stroke-linecap="round" stroke-linejoin="round"/>
</svg>
