<svg width="108" height="69" viewBox="0 0 108 69" fill="none" xmlns="http://www.w3.org/2000/svg">
<path d="M35 50.5C48.531 50.5 59.5 39.531 59.5 26C59.5 12.469 48.531 1.5 35 1.5C21.469 1.5 10.5 12.469 10.5 26C10.5 39.531 21.469 50.5 35 50.5Z" stroke="#F1AAAC" stroke-width="2.5" stroke-linecap="round" stroke-linejoin="round"/>
<path d="M66.5 2.39519C68.6558 1.80779 70.879 1.50683 73.1127 1.5C79.5806 1.5 85.7836 4.08124 90.3571 8.67588C94.9306 13.2705 97.5 19.5022 97.5 26C97.5 32.4978 94.9306 38.7295 90.3571 43.3241C85.7836 47.9188 79.5806 50.5 73.1127 50.5" stroke="#F1AAAC" stroke-width="2.5" stroke-linecap="round" stroke-linejoin="round"/>
<path d="M1.5 67.5C5.27781 62.2486 10.2939 57.9624 16.1246 55.0036C21.9554 52.0447 28.4294 50.5 35 50.5C41.5706 50.5 48.0446 52.0447 53.8754 55.0036C59.7061 57.9624 64.7222 62.2486 68.5 67.5" stroke="#F1AAAC" stroke-width="2.5" stroke-linecap="round" stroke-linejoin="round"/>
<path d="M73.5 50.5C79.9731 50.496 86.3518 52.039 92.0961 54.9981C97.8404 57.9573 102.781 62.2456 106.5 67.5" stroke="#F1AAAC" stroke-width="2.5" stroke-linecap="round" stroke-linejoin="round"/>
</svg>
