<svg width="209" height="167" viewBox="0 0 209 167" fill="none" xmlns="http://www.w3.org/2000/svg">
<path d="M117.67 145.913L117.214 146.788L118.083 147.255L150.583 164.755L151.467 165.232L151.939 164.345L193.189 86.8449L193.194 86.8364C198.616 76.4095 202.195 68.0067 203.892 61.6533C205.988 54.9437 207.057 49.2181 207.057 44.5C207.057 32.5651 202.783 22.3116 194.264 13.7929C185.761 5.29019 175.93 1 164.807 1C152.872 1 142.618 5.27417 134.1 13.7929L134.09 13.802L134.082 13.8113C125.985 22.3335 121.932 32.5813 121.932 44.5C121.932 55.5746 125.562 64.991 132.83 72.6867L132.849 72.7074L132.87 72.727C138.399 77.9487 144.299 81.315 150.562 82.7804L117.67 145.913ZM2.66979 145.913L2.21399 146.788L3.08254 147.255L35.5825 164.755L36.4673 165.232L36.9394 164.345L78.1894 86.8449L78.1939 86.8364C83.6158 76.4095 87.1952 68.0067 88.8924 61.6533C90.9877 54.9437 92.0566 49.2181 92.0566 44.5C92.0566 32.5651 87.7825 22.3116 79.2637 13.7929C70.761 5.29019 60.9298 1 49.8066 1C37.8717 1 27.6183 5.27417 19.0995 13.7929L19.0905 13.802L19.0816 13.8113C10.9855 22.3335 6.93164 32.5813 6.93164 44.5C6.93164 55.5746 10.5615 64.991 17.8296 72.6867L17.8492 72.7074L17.87 72.727C23.3989 77.9487 29.2991 81.315 35.5624 82.7804L2.66979 145.913Z" fill="#E4EBEB" stroke="#DFCECE" stroke-width="2"/>
</svg>
