<svg width="230" height="45" viewBox="0 0 230 45" fill="none" xmlns="http://www.w3.org/2000/svg">
<path d="M44.083 33L53.563 10.41H53.743L63.193 33H59.863L52.783 14.97L54.853 13.62L46.933 33H44.083ZM49.633 24.78H57.703L58.663 27.3H48.793L49.633 24.78ZM73.7282 20.58L73.9982 24.18L73.8482 23.7C74.1682 22.94 74.6282 22.3 75.2282 21.78C75.8482 21.24 76.4882 20.83 77.1482 20.55C77.8282 20.25 78.4182 20.1 78.9182 20.1L78.7682 22.86C77.8282 22.8 76.9982 22.98 76.2782 23.4C75.5782 23.82 75.0182 24.38 74.5982 25.08C74.1982 25.78 73.9982 26.53 73.9982 27.33V33H71.2382V20.58H73.7282ZM96.7202 31.86C96.1602 32.3 95.4902 32.65 94.7102 32.91C93.9302 33.17 93.1502 33.3 92.3702 33.3C91.0102 33.3 89.8202 33.03 88.8002 32.49C87.7802 31.95 86.9802 31.2 86.4002 30.24C85.8402 29.26 85.5602 28.11 85.5602 26.79C85.5602 25.47 85.8602 24.32 86.4602 23.34C87.0802 22.36 87.8802 21.61 88.8602 21.09C89.8602 20.55 90.9302 20.28 92.0702 20.28C93.0702 20.28 93.9602 20.42 94.7402 20.7C95.5402 20.98 96.2202 21.36 96.7802 21.84L95.4002 23.64C95.0402 23.36 94.6002 23.11 94.0802 22.89C93.5602 22.67 92.9702 22.56 92.3102 22.56C91.5902 22.56 90.9202 22.75 90.3002 23.13C89.7002 23.49 89.2202 23.99 88.8602 24.63C88.5202 25.27 88.3502 25.99 88.3502 26.79C88.3502 27.55 88.5302 28.26 88.8902 28.92C89.2502 29.56 89.7502 30.07 90.3902 30.45C91.0302 30.81 91.7602 30.99 92.5802 30.99C93.1202 30.99 93.6102 30.91 94.0502 30.75C94.5102 30.59 94.9202 30.37 95.2802 30.09L96.7202 31.86ZM104.972 33V9.78H107.702V23.46L107.642 22.95C108.062 22.13 108.702 21.45 109.562 20.91C110.442 20.37 111.472 20.1 112.652 20.1C113.832 20.1 114.792 20.45 115.532 21.15C116.292 21.83 116.682 22.72 116.702 23.82V33H113.882V24.81C113.862 24.13 113.662 23.58 113.282 23.16C112.922 22.72 112.352 22.5 111.572 22.5C110.852 22.5 110.202 22.71 109.622 23.13C109.042 23.53 108.582 24.08 108.242 24.78C107.922 25.48 107.762 26.28 107.762 27.18V33H104.972ZM126.204 20.58H128.994V33H126.204V20.58ZM125.994 16.08C125.994 15.64 126.164 15.27 126.504 14.97C126.864 14.67 127.254 14.52 127.674 14.52C128.094 14.52 128.464 14.67 128.784 14.97C129.124 15.27 129.294 15.64 129.294 16.08C129.294 16.54 129.124 16.92 128.784 17.22C128.464 17.5 128.094 17.64 127.674 17.64C127.254 17.64 126.864 17.49 126.504 17.19C126.164 16.89 125.994 16.52 125.994 16.08ZM137.391 10.92H152.271V15.12H146.901V33H142.551V15.12H137.391V10.92ZM166.849 26.13L158.719 10.92H164.089L169.789 22.38L168.499 22.47L174.109 10.92H179.479L171.199 26.13V33H166.849V26.13ZM194.11 10.92C195.93 10.92 197.47 11.23 198.73 11.85C199.99 12.45 200.95 13.31 201.61 14.43C202.27 15.53 202.6 16.84 202.6 18.36C202.6 19.26 202.46 20.17 202.18 21.09C201.92 21.99 201.49 22.81 200.89 23.55C200.31 24.29 199.52 24.89 198.52 25.35C197.54 25.79 196.33 26.01 194.89 26.01H191.77V33H187.42V10.92H194.11ZM194.86 21.78C195.52 21.78 196.07 21.67 196.51 21.45C196.95 21.21 197.29 20.92 197.53 20.58C197.79 20.22 197.97 19.85 198.07 19.47C198.19 19.09 198.25 18.76 198.25 18.48C198.25 18.26 198.21 17.97 198.13 17.61C198.07 17.23 197.93 16.85 197.71 16.47C197.49 16.09 197.15 15.77 196.69 15.51C196.25 15.25 195.65 15.12 194.89 15.12H191.77V21.78H194.86ZM211.142 10.92H226.202V15.12H215.492V19.83H224.972V24.03H215.492V28.8H226.622V33H211.142V10.92Z" fill="#2B4248"/>
<path d="M1.12305 39V16.2L21.9326 1V39" stroke="#2B4248"/>
<path d="M11.9805 39V16.2L32.79 1V39" stroke="#2B4248"/>
<path d="M21.9328 20L11.9805 26.8623V39H21.9328V20Z" fill="#2B4248"/>
</svg>
