<svg width="48" height="36" viewBox="0 0 48 36" fill="none" xmlns="http://www.w3.org/2000/svg">
<path d="M17.466 4.26C14.484 7.242 12.425 10.011 11.289 12.567C10.153 15.123 9.443 17.892 9.159 20.874H15.975L14.484 35.784H0L0.852 24.282C1.278 19.312 2.343 14.91 4.047 11.076C5.751 7.1 8.449 3.408 12.141 0L17.466 4.26ZM47.925 4.26C44.943 7.242 42.884 10.011 41.748 12.567C40.612 15.123 39.902 17.892 39.618 20.874H46.434L44.943 35.784H30.459L31.311 24.282C31.737 19.312 32.802 14.91 34.506 11.076C36.21 7.1 38.908 3.408 42.6 0L47.925 4.26Z" fill="#2B4248"/>
</svg>
