<svg width="23" height="22" viewBox="0 0 23 22" fill="none" xmlns="http://www.w3.org/2000/svg">
<path d="M15.8366 2.04779C17.0658 2.05132 18.2437 2.52313 19.113 3.36017C19.9822 4.19721 20.4721 5.33146 20.4758 6.5152V15.4491C20.4721 16.6328 19.9822 17.7671 19.113 18.6041C18.2437 19.4412 17.0658 19.913 15.8366 19.9165H6.55909C5.32982 19.913 4.15194 19.4412 3.28271 18.6041C2.41348 17.7671 1.92352 16.6328 1.91985 15.4491V6.5152C1.92352 5.33146 2.41348 4.19721 3.28271 3.36017C4.15194 2.52313 5.32982 2.05132 6.55909 2.04779H15.8366ZM15.8366 0.261108H6.55909C2.98697 0.261108 0.0644531 3.07538 0.0644531 6.5152V15.4491C0.0644531 18.8889 2.98697 21.7032 6.55909 21.7032H15.8366C19.4087 21.7032 22.3312 18.8889 22.3312 15.4491V6.5152C22.3312 3.07538 19.4087 0.261108 15.8366 0.261108Z" fill="#2B4248"/>
<path d="M17.228 6.5151C16.9527 6.5151 16.6837 6.4365 16.4548 6.28925C16.2259 6.14199 16.0476 5.93269 15.9422 5.68781C15.8369 5.44294 15.8093 5.17348 15.863 4.91352C15.9167 4.65356 16.0493 4.41477 16.2439 4.22735C16.4385 4.03993 16.6865 3.9123 16.9565 3.86059C17.2264 3.80888 17.5062 3.83542 17.7605 3.93685C18.0148 4.03828 18.2322 4.21005 18.3851 4.43043C18.538 4.65082 18.6196 4.90992 18.6196 5.17497C18.62 5.35106 18.5843 5.5255 18.5145 5.68826C18.4447 5.85102 18.3422 5.99891 18.2129 6.12343C18.0836 6.24795 17.93 6.34664 17.761 6.41386C17.592 6.48107 17.4108 6.51548 17.228 6.5151ZM11.1976 7.4082C11.9316 7.4082 12.6491 7.6178 13.2594 8.0105C13.8698 8.4032 14.3454 8.96136 14.6263 9.61439C14.9072 10.2674 14.9807 10.986 14.8375 11.6793C14.6943 12.3725 14.3409 13.0093 13.8218 13.5091C13.3028 14.0089 12.6415 14.3493 11.9216 14.4872C11.2017 14.6251 10.4555 14.5543 9.7773 14.2838C9.09915 14.0133 8.51953 13.5553 8.11172 12.9676C7.70392 12.3798 7.48626 11.6889 7.48626 10.982C7.48731 10.0345 7.87866 9.12608 8.57443 8.45607C9.27021 7.78607 10.2136 7.40921 11.1976 7.4082ZM11.1976 5.62152C10.0966 5.62152 9.0203 5.93591 8.10486 6.52493C7.18943 7.11395 6.47593 7.95115 6.0546 8.93066C5.63327 9.91016 5.52303 10.988 5.73782 12.0278C5.95262 13.0677 6.48279 14.0228 7.26131 14.7725C8.03982 15.5222 9.03171 16.0327 10.1115 16.2396C11.1914 16.4464 12.3107 16.3402 13.3278 15.9345C14.345 15.5288 15.2144 14.8417 15.8261 13.9602C16.4378 13.0786 16.7642 12.0422 16.7642 10.982C16.7642 9.56034 16.1778 8.19687 15.1338 7.19158C14.0898 6.18629 12.6739 5.62152 11.1976 5.62152Z" fill="#2B4248"/>
</svg>
