<svg width="1130" height="298" viewBox="0 0 1130 298" fill="none" xmlns="http://www.w3.org/2000/svg">
<path d="M2.71973 4.80469C22.2054 3.06966 41.0905 1.86849 59.375 1.20117C77.6595 0.400391 95.7438 0 113.628 0C131.512 0 150.931 0.467122 171.885 1.40137C192.839 2.20215 215.728 3.47005 240.552 5.20508L242.954 9.40918L224.136 58.0566L217.529 56.0547C218.464 51.3835 219.131 47.0459 219.531 43.042C220.065 38.9046 220.332 35.0342 220.332 31.4307C220.332 26.4925 219.932 22.0215 219.131 18.0176C202.181 16.9499 186.899 16.1491 173.286 15.6152C159.806 15.0814 147.795 14.7477 137.251 14.6143V257.852C137.251 263.324 137.718 267.995 138.652 271.865C139.72 275.736 141.455 279.006 143.857 281.675C146.26 284.344 149.463 286.546 153.467 288.281C157.471 289.883 162.542 291.217 168.682 292.285L167.08 297.09C159.072 296.022 152.132 295.221 146.26 294.688C140.387 294.154 135.449 293.887 131.445 293.887C127.708 293.887 123.504 294.154 118.833 294.688C114.295 295.221 109.224 296.022 103.618 297.09L102.417 295.088C105.086 291.217 106.421 284.144 106.421 273.867V14.6143C96.2777 14.7477 84.3994 15.0814 70.7861 15.6152C57.1729 16.1491 41.6244 16.9499 24.1406 18.0176C23.3398 22.4219 22.9395 27.0931 22.9395 32.0312C22.9395 39.1048 23.8737 47.1126 25.7422 56.0547L19.1357 58.0566L0.317383 9.40918L2.71973 4.80469Z" fill="#2B4248"/>
<path d="M353.75 4.00391C358.688 3.47005 362.759 6.33952 365.962 12.6123L438.233 145.942C480.407 80.1449 504.164 40.3727 509.502 26.626C511.237 21.6878 509.702 17.8174 504.898 15.0146C500.093 12.0785 492.085 10.0765 480.874 9.00879L480.073 5.20508C504.097 2.9362 521.981 3.60352 533.726 7.20703C535.861 8.27474 536.395 9.94303 535.327 12.2119C533.058 16.7497 530.589 21.4876 527.92 26.4258C525.251 31.2305 498.358 74.6061 447.241 156.553V257.852C447.241 268.662 449.377 276.536 453.648 281.475C458.052 286.413 466.393 290.016 478.672 292.285L477.07 297.09C462.256 295.088 450.978 294.02 443.237 293.887C435.497 293.753 425.62 294.821 413.609 297.09L412.407 295.088C415.077 291.217 416.411 284.144 416.411 273.867V164.36L352.949 49.4482C347.611 40.5062 342.873 34.0999 338.736 30.2295C334.598 26.359 330.261 24.1569 325.723 23.623C321.185 22.9557 315.78 23.0892 309.507 24.0234L306.504 20.4199C326.123 10.5436 341.872 5.07161 353.75 4.00391Z" fill="#2B4248"/>
<path d="M686.763 30.6299V257.852C686.763 268.662 688.965 276.536 693.37 281.475C697.774 286.413 706.115 290.016 718.394 292.285L716.592 297.09C701.377 294.954 689.366 293.887 680.557 293.887C672.683 293.887 663.54 294.954 653.13 297.09L651.929 295.088C654.598 291.217 655.933 284.144 655.933 273.867V63.4619C655.933 44.5101 653.731 32.098 649.327 26.2256C645.056 20.2197 635.513 17.2168 620.699 17.2168L619.898 11.4111C657.001 5.93913 686.83 3.20312 709.385 3.20312C724.867 3.20312 738.547 4.33757 750.425 6.60645C762.437 8.87533 773.247 12.679 782.857 18.0176C792.466 23.2227 799.807 30.4964 804.878 39.8389C810.083 49.1813 812.686 60.459 812.686 73.6719C812.686 88.2194 807.948 101.499 798.472 113.511C789.13 125.389 777.452 134.465 763.438 140.737C749.558 146.877 735.344 149.946 720.796 149.946C715.057 149.946 710.786 149.679 707.984 149.146V142.139C718.127 142.139 727.469 140.804 736.011 138.135C744.686 135.465 752.36 131.462 759.034 126.123C765.84 120.785 771.112 113.778 774.849 105.103C778.719 96.2939 780.655 86.2174 780.655 74.873C780.655 56.5885 776.05 42.1077 766.841 31.4307C757.632 20.7536 743.218 15.415 723.599 15.415C709.185 15.415 696.506 16.2826 685.562 18.0176C686.363 22.0215 686.763 26.2256 686.763 30.6299Z" fill="#2B4248"/>
<path d="M988.145 281.675L1058.61 279.473C1068.36 279.206 1076.56 278.071 1083.24 276.069C1089.91 274.067 1095.65 271.265 1100.45 267.661C1105.26 263.924 1109.46 259.386 1113.07 254.048C1116.67 248.576 1120.27 242.303 1123.88 235.229L1129.68 237.632L1109.86 291.084L1106.66 293.887H961.119C958.583 288.415 957.315 281.875 957.315 274.268V61.46C957.315 52.6514 956.915 45.4443 956.114 39.8389C955.313 34.0999 953.845 29.5622 951.71 26.2256C949.574 22.7555 946.571 20.3532 942.701 19.0186C938.964 17.6839 934.092 17.0166 928.087 17.0166C927.152 17.0166 926.151 17.0166 925.084 17.0166C924.149 17.0166 923.148 17.0833 922.081 17.2168L921.28 11.4111C959.317 5.40527 1001.22 2.40234 1047 2.40234C1070.36 2.40234 1094.85 3.20312 1120.47 4.80469L1121.88 8.20801L1102.86 58.0566L1096.45 56.0547C1097.52 50.9831 1098.32 46.3118 1098.85 42.041C1099.39 37.7702 1099.65 33.6328 1099.65 29.6289C1099.65 25.4915 1099.12 21.6211 1098.05 18.0176C1088.04 17.0833 1078.17 16.416 1068.42 16.0156C1058.81 15.4818 1049.2 15.2148 1039.6 15.2148C1022.11 15.2148 1004.96 16.0156 988.145 17.6172V130.728L1097.65 124.722L1099.65 126.924L1090.24 143.34C1084.24 143.073 1078.17 142.873 1072.03 142.739C1065.89 142.606 1059.61 142.539 1053.21 142.539C1042.8 142.539 1032.19 142.739 1021.38 143.14C1010.57 143.54 999.49 144.074 988.145 144.741V281.675Z" fill="#2B4248"/>
</svg>
